<mxfile host="app.diagrams.net" agent="Mozilla/5.0 (X11; Linux x86_64; rv:137.0) Gecko/20100101 Firefox/137.0" version="26.2.3" pages="2">
  <diagram name="Page-1" id="TOdy9MZep6Cu1Kd4wukL">
    <mxGraphModel dx="1434" dy="718" grid="1" gridSize="10" guides="1" tooltips="1" connect="1" arrows="1" fold="1" page="1" pageScale="1" pageWidth="850" pageHeight="1100" math="0" shadow="0">
      <root>
        <mxCell id="0" />
        <mxCell id="1" parent="0" />
        <mxCell id="gmVdLreCK7yzEKoasSpI-35" style="edgeStyle=orthogonalEdgeStyle;rounded=0;orthogonalLoop=1;jettySize=auto;html=1;" edge="1" parent="1" source="gmVdLreCK7yzEKoasSpI-1" target="gmVdLreCK7yzEKoasSpI-3">
          <mxGeometry relative="1" as="geometry" />
        </mxCell>
        <mxCell id="gmVdLreCK7yzEKoasSpI-1" value="Actor" style="shape=umlActor;verticalLabelPosition=bottom;verticalAlign=top;html=1;outlineConnect=0;" vertex="1" parent="1">
          <mxGeometry x="110" y="130" width="30" height="60" as="geometry" />
        </mxCell>
        <mxCell id="gmVdLreCK7yzEKoasSpI-36" style="edgeStyle=orthogonalEdgeStyle;rounded=0;orthogonalLoop=1;jettySize=auto;html=1;exitX=1;exitY=0.5;exitDx=0;exitDy=0;" edge="1" parent="1" source="gmVdLreCK7yzEKoasSpI-3" target="gmVdLreCK7yzEKoasSpI-5">
          <mxGeometry relative="1" as="geometry" />
        </mxCell>
        <mxCell id="gmVdLreCK7yzEKoasSpI-3" value="" style="rounded=1;whiteSpace=wrap;html=1;" vertex="1" parent="1">
          <mxGeometry x="250" y="130" width="120" height="60" as="geometry" />
        </mxCell>
        <mxCell id="gmVdLreCK7yzEKoasSpI-4" value="" style="shape=datastore;whiteSpace=wrap;html=1;" vertex="1" parent="1">
          <mxGeometry x="720" y="130" width="60" height="60" as="geometry" />
        </mxCell>
        <mxCell id="gmVdLreCK7yzEKoasSpI-37" style="edgeStyle=orthogonalEdgeStyle;rounded=0;orthogonalLoop=1;jettySize=auto;html=1;entryX=0;entryY=0.7;entryDx=0;entryDy=0;" edge="1" parent="1" source="gmVdLreCK7yzEKoasSpI-5" target="gmVdLreCK7yzEKoasSpI-4">
          <mxGeometry relative="1" as="geometry" />
        </mxCell>
        <mxCell id="gmVdLreCK7yzEKoasSpI-5" value="" style="outlineConnect=0;dashed=0;verticalLabelPosition=bottom;verticalAlign=top;align=center;html=1;shape=mxgraph.aws3.cache_node;fillColor=#2E73B8;gradientColor=none;" vertex="1" parent="1">
          <mxGeometry x="520" y="127" width="60" height="63" as="geometry" />
        </mxCell>
        <mxCell id="gmVdLreCK7yzEKoasSpI-38" value="mongodb" style="text;html=1;align=center;verticalAlign=middle;whiteSpace=wrap;rounded=0;" vertex="1" parent="1">
          <mxGeometry x="730" y="220" width="60" height="30" as="geometry" />
        </mxCell>
        <mxCell id="gmVdLreCK7yzEKoasSpI-39" value="&lt;div&gt;redis&lt;/div&gt;" style="text;html=1;align=center;verticalAlign=middle;whiteSpace=wrap;rounded=0;" vertex="1" parent="1">
          <mxGeometry x="520" y="220" width="62" height="30" as="geometry" />
        </mxCell>
        <mxCell id="gmVdLreCK7yzEKoasSpI-40" value="&lt;div&gt;java app&lt;/div&gt;" style="text;html=1;align=center;verticalAlign=middle;whiteSpace=wrap;rounded=0;" vertex="1" parent="1">
          <mxGeometry x="280" y="210" width="62" height="30" as="geometry" />
        </mxCell>
        <mxCell id="gmVdLreCK7yzEKoasSpI-41" value="&lt;div&gt;client&lt;/div&gt;" style="text;html=1;align=center;verticalAlign=middle;whiteSpace=wrap;rounded=0;" vertex="1" parent="1">
          <mxGeometry x="100" y="220" width="48" height="30" as="geometry" />
        </mxCell>
      </root>
    </mxGraphModel>
  </diagram>
  <diagram id="RJOmtcUFHJlpsHg_10IW" name="Page-2">
    <mxGraphModel dx="2278" dy="723" grid="1" gridSize="10" guides="1" tooltips="1" connect="1" arrows="1" fold="1" page="1" pageScale="1" pageWidth="850" pageHeight="1100" math="0" shadow="0">
      <root>
        <mxCell id="0" />
        <mxCell id="1" parent="0" />
        <mxCell id="iljhxjv08F5YG5MMzbli-9" style="edgeStyle=orthogonalEdgeStyle;rounded=0;orthogonalLoop=1;jettySize=auto;html=1;exitX=1;exitY=0.5;exitDx=0;exitDy=0;entryX=0;entryY=0.5;entryDx=0;entryDy=0;" edge="1" parent="1" source="iljhxjv08F5YG5MMzbli-2" target="iljhxjv08F5YG5MMzbli-8">
          <mxGeometry relative="1" as="geometry">
            <Array as="points">
              <mxPoint x="120" y="323" />
            </Array>
          </mxGeometry>
        </mxCell>
        <mxCell id="iljhxjv08F5YG5MMzbli-2" value="&lt;div&gt;client&lt;/div&gt;" style="rounded=1;whiteSpace=wrap;html=1;" vertex="1" parent="1">
          <mxGeometry x="-140" y="258" width="60" height="130" as="geometry" />
        </mxCell>
        <mxCell id="iljhxjv08F5YG5MMzbli-3" value="&lt;div&gt;akamai&lt;/div&gt;" style="ellipse;shape=cloud;whiteSpace=wrap;html=1;" vertex="1" parent="1">
          <mxGeometry x="-10" y="420" width="120" height="80" as="geometry" />
        </mxCell>
        <mxCell id="iljhxjv08F5YG5MMzbli-26" style="edgeStyle=orthogonalEdgeStyle;rounded=0;orthogonalLoop=1;jettySize=auto;html=1;exitX=1;exitY=0.5;exitDx=0;exitDy=0;" edge="1" parent="1" source="iljhxjv08F5YG5MMzbli-4" target="iljhxjv08F5YG5MMzbli-7">
          <mxGeometry relative="1" as="geometry" />
        </mxCell>
        <mxCell id="iljhxjv08F5YG5MMzbli-4" value="&lt;div&gt;search&lt;/div&gt;" style="rounded=1;whiteSpace=wrap;html=1;" vertex="1" parent="1">
          <mxGeometry x="110" y="220" width="120" height="60" as="geometry" />
        </mxCell>
        <mxCell id="iljhxjv08F5YG5MMzbli-5" value="" style="shape=cylinder3;whiteSpace=wrap;html=1;boundedLbl=1;backgroundOutline=1;size=15;" vertex="1" parent="1">
          <mxGeometry x="670" y="290" width="60" height="80" as="geometry" />
        </mxCell>
        <mxCell id="iljhxjv08F5YG5MMzbli-6" value="" style="shape=cylinder3;whiteSpace=wrap;html=1;boundedLbl=1;backgroundOutline=1;size=15;" vertex="1" parent="1">
          <mxGeometry x="680" y="300" width="60" height="80" as="geometry" />
        </mxCell>
        <mxCell id="iljhxjv08F5YG5MMzbli-7" value="&lt;div&gt;songs metadata,&lt;/div&gt;&lt;div&gt;userInfo&lt;/div&gt;" style="shape=cylinder3;whiteSpace=wrap;html=1;boundedLbl=1;backgroundOutline=1;size=15;" vertex="1" parent="1">
          <mxGeometry x="690" y="310" width="60" height="80" as="geometry" />
        </mxCell>
        <mxCell id="iljhxjv08F5YG5MMzbli-8" value="&lt;div&gt;authentication service&lt;/div&gt;" style="rounded=1;whiteSpace=wrap;html=1;" vertex="1" parent="1">
          <mxGeometry x="110" y="293" width="120" height="60" as="geometry" />
        </mxCell>
        <mxCell id="iljhxjv08F5YG5MMzbli-10" value="" style="endArrow=classic;startArrow=classic;html=1;rounded=0;entryX=0;entryY=0.5;entryDx=0;entryDy=0;" edge="1" parent="1" target="iljhxjv08F5YG5MMzbli-4">
          <mxGeometry width="50" height="50" relative="1" as="geometry">
            <mxPoint x="-50" y="323" as="sourcePoint" />
            <mxPoint x="-10" y="273" as="targetPoint" />
          </mxGeometry>
        </mxCell>
        <mxCell id="iljhxjv08F5YG5MMzbli-11" value="&lt;div&gt;rapid playlist&lt;/div&gt;&lt;div&gt;cache&lt;/div&gt;" style="shape=cylinder3;whiteSpace=wrap;html=1;boundedLbl=1;backgroundOutline=1;size=15;" vertex="1" parent="1">
          <mxGeometry x="590" y="100" width="60" height="80" as="geometry" />
        </mxCell>
        <mxCell id="iljhxjv08F5YG5MMzbli-12" style="edgeStyle=orthogonalEdgeStyle;rounded=0;orthogonalLoop=1;jettySize=auto;html=1;exitX=1;exitY=0.5;exitDx=0;exitDy=0;entryX=0;entryY=0.5;entryDx=0;entryDy=0;entryPerimeter=0;" edge="1" parent="1" source="iljhxjv08F5YG5MMzbli-4" target="iljhxjv08F5YG5MMzbli-11">
          <mxGeometry relative="1" as="geometry">
            <Array as="points">
              <mxPoint x="465" y="250" />
              <mxPoint x="465" y="150" />
              <mxPoint x="590" y="150" />
            </Array>
          </mxGeometry>
        </mxCell>
        <mxCell id="iljhxjv08F5YG5MMzbli-14" value="" style="endArrow=classic;startArrow=classic;html=1;rounded=0;exitX=0.317;exitY=0.2;exitDx=0;exitDy=0;exitPerimeter=0;" edge="1" parent="1" source="iljhxjv08F5YG5MMzbli-3">
          <mxGeometry width="50" height="50" relative="1" as="geometry">
            <mxPoint x="-100" y="370" as="sourcePoint" />
            <mxPoint x="-50" y="320" as="targetPoint" />
          </mxGeometry>
        </mxCell>
        <mxCell id="iljhxjv08F5YG5MMzbli-15" value="&lt;div&gt;songs &lt;br&gt;&lt;/div&gt;&lt;div&gt;s3 bucket&lt;/div&gt;" style="shape=cylinder3;whiteSpace=wrap;html=1;boundedLbl=1;backgroundOutline=1;size=15;" vertex="1" parent="1">
          <mxGeometry x="460" y="600" width="60" height="80" as="geometry" />
        </mxCell>
        <mxCell id="iljhxjv08F5YG5MMzbli-16" style="edgeStyle=orthogonalEdgeStyle;rounded=0;orthogonalLoop=1;jettySize=auto;html=1;entryX=0;entryY=0.5;entryDx=0;entryDy=0;entryPerimeter=0;" edge="1" parent="1" source="iljhxjv08F5YG5MMzbli-3" target="iljhxjv08F5YG5MMzbli-15">
          <mxGeometry relative="1" as="geometry" />
        </mxCell>
        <mxCell id="iljhxjv08F5YG5MMzbli-17" value="&lt;div&gt;rate&lt;/div&gt;&lt;div&gt;limit&lt;/div&gt;" style="rounded=1;whiteSpace=wrap;html=1;" vertex="1" parent="1">
          <mxGeometry x="20" y="250" width="40" height="120" as="geometry" />
        </mxCell>
        <mxCell id="iljhxjv08F5YG5MMzbli-22" style="edgeStyle=orthogonalEdgeStyle;rounded=0;orthogonalLoop=1;jettySize=auto;html=1;" edge="1" parent="1" source="iljhxjv08F5YG5MMzbli-19" target="iljhxjv08F5YG5MMzbli-20">
          <mxGeometry relative="1" as="geometry">
            <Array as="points">
              <mxPoint x="830" y="500" />
            </Array>
          </mxGeometry>
        </mxCell>
        <mxCell id="iljhxjv08F5YG5MMzbli-19" value="&lt;div&gt;generate best playlist&lt;/div&gt;&lt;div&gt;based on date, mood&lt;/div&gt;" style="ellipse;whiteSpace=wrap;html=1;" vertex="1" parent="1">
          <mxGeometry x="710" y="20" width="120" height="80" as="geometry" />
        </mxCell>
        <mxCell id="iljhxjv08F5YG5MMzbli-20" value="&lt;div&gt;injest data &lt;br&gt;&lt;/div&gt;&lt;div&gt;for high compute task&lt;/div&gt;" style="shape=cylinder3;whiteSpace=wrap;html=1;boundedLbl=1;backgroundOutline=1;size=15;" vertex="1" parent="1">
          <mxGeometry x="690" y="470" width="60" height="120" as="geometry" />
        </mxCell>
        <mxCell id="iljhxjv08F5YG5MMzbli-21" value="" style="endArrow=classic;startArrow=classic;html=1;rounded=0;entryX=0.5;entryY=0.363;entryDx=0;entryDy=0;entryPerimeter=0;" edge="1" parent="1" target="iljhxjv08F5YG5MMzbli-20">
          <mxGeometry width="50" height="50" relative="1" as="geometry">
            <mxPoint x="720" y="390" as="sourcePoint" />
            <mxPoint x="770" y="340" as="targetPoint" />
          </mxGeometry>
        </mxCell>
        <mxCell id="iljhxjv08F5YG5MMzbli-25" style="edgeStyle=orthogonalEdgeStyle;rounded=0;orthogonalLoop=1;jettySize=auto;html=1;exitX=0;exitY=0.5;exitDx=0;exitDy=0;entryX=0.5;entryY=0;entryDx=0;entryDy=0;entryPerimeter=0;" edge="1" parent="1" source="iljhxjv08F5YG5MMzbli-19" target="iljhxjv08F5YG5MMzbli-11">
          <mxGeometry relative="1" as="geometry" />
        </mxCell>
        <mxCell id="iljhxjv08F5YG5MMzbli-27" value="Music Streaming" style="rounded=1;whiteSpace=wrap;html=1;" vertex="1" parent="1">
          <mxGeometry x="290" y="20" width="120" height="60" as="geometry" />
        </mxCell>
        <mxCell id="iljhxjv08F5YG5MMzbli-30" value="elasticSearch&lt;br&gt;getting query refined to keywords" style="ellipse;shape=cloud;whiteSpace=wrap;html=1;" vertex="1" parent="1">
          <mxGeometry x="260" y="110" width="120" height="80" as="geometry" />
        </mxCell>
        <mxCell id="iljhxjv08F5YG5MMzbli-31" value="" style="endArrow=classic;startArrow=classic;html=1;rounded=0;" edge="1" parent="1" target="iljhxjv08F5YG5MMzbli-30">
          <mxGeometry width="50" height="50" relative="1" as="geometry">
            <mxPoint x="170" y="220" as="sourcePoint" />
            <mxPoint x="220" y="170" as="targetPoint" />
          </mxGeometry>
        </mxCell>
        <mxCell id="iljhxjv08F5YG5MMzbli-32" style="edgeStyle=orthogonalEdgeStyle;rounded=0;orthogonalLoop=1;jettySize=auto;html=1;entryX=0;entryY=1;entryDx=0;entryDy=-15;entryPerimeter=0;" edge="1" parent="1" source="iljhxjv08F5YG5MMzbli-30" target="iljhxjv08F5YG5MMzbli-5">
          <mxGeometry relative="1" as="geometry">
            <Array as="points">
              <mxPoint x="350" y="350" />
              <mxPoint x="525" y="350" />
              <mxPoint x="525" y="355" />
            </Array>
          </mxGeometry>
        </mxCell>
      </root>
    </mxGraphModel>
  </diagram>
</mxfile>
